<svg width="30" height="32" viewBox="0 0 30 32" fill="none" xmlns="http://www.w3.org/2000/svg">
<path fill-rule="evenodd" clip-rule="evenodd" d="M15 0C23.2845 0 30 7.33953 30 16.3949C30 23.637 25.707 29.7806 19.7505 31.9505C18.99 32.112 18.72 31.6001 18.72 31.1635C18.72 30.623 18.738 28.8577 18.738 26.6638C18.738 25.1352 18.258 24.1374 17.7195 23.6289C21.06 23.2228 24.57 21.8363 24.57 15.5392C24.57 13.7483 23.988 12.2868 23.025 11.1387C23.181 10.7245 23.6955 9.05694 22.878 6.79909C22.878 6.79909 21.621 6.35978 18.7575 8.48012C17.559 8.11713 16.275 7.9345 15 7.9281C13.725 7.9345 12.4425 8.11713 11.2455 8.48012C8.379 6.35978 7.119 6.79909 7.119 6.79909C6.3045 9.05694 6.819 10.7245 6.9735 11.1387C6.015 12.2868 5.4285 13.7483 5.4285 15.5392C5.4285 21.8203 8.93101 23.228 12.2625 23.6422C11.8335 24.0516 11.445 24.7737 11.31 25.8339C10.455 26.2528 8.283 26.9779 6.945 24.4722C6.945 24.4722 6.1515 22.8969 4.6455 22.7818C4.6455 22.7818 3.183 22.7611 4.5435 23.7781C4.5435 23.7781 5.526 24.2818 6.2085 26.1766C6.2085 26.1766 7.089 29.1028 11.262 28.1114C11.2695 29.4818 11.283 30.7733 11.283 31.1635C11.283 31.5969 11.007 32.104 10.2585 31.9521C4.2975 29.7854 0 23.6386 0 16.3949C0 7.33953 6.717 0 15 0Z" fill="white"/>
</svg>
