<svg width="30" height="32" viewBox="0 0 30 32" fill="none" xmlns="http://www.w3.org/2000/svg">
<path fill-rule="evenodd" clip-rule="evenodd" d="M0 9.80064C0 4.38789 4.11609 0 9.19355 0H20.8065C25.8838 0 30 4.38788 30 9.80064V22.1804C30 27.5931 25.8838 31.981 20.8065 31.981H9.19355C4.11608 31.981 0 27.593 0 22.1804V9.80064ZM9.19355 3.09494C5.7195 3.09494 2.90323 6.09718 2.90323 9.80064V22.1804C2.90323 25.8838 5.71951 28.8861 9.19355 28.8861H20.8065C24.2804 28.8861 27.0968 25.8838 27.0968 22.1804V9.80064C27.0968 6.09719 24.2804 3.09494 20.8065 3.09494H9.19355Z" fill="white"/>
<path fill-rule="evenodd" clip-rule="evenodd" d="M15 11.1935C12.5146 11.1935 10.5 13.3411 10.5 15.9906C10.5 18.6401 12.5146 20.7878 15 20.7878C16.1933 20.7878 17.338 20.2823 18.1819 19.3827C19.0259 18.483 19.5 17.2628 19.5 15.9906C19.5 13.3411 17.4854 11.1935 15 11.1935ZM7.5 15.9906C7.5 11.5749 10.8578 7.99536 15 7.99536C19.1422 7.99536 22.5 11.5749 22.5 15.9906C22.5 18.111 21.7097 20.1447 20.3033 21.6441C18.8968 23.1434 16.9891 23.9859 15 23.9859C10.8578 23.9859 7.5 20.4064 7.5 15.9906Z" fill="white"/>
<path fill-rule="evenodd" clip-rule="evenodd" d="M23.25 9.59424C22.0074 9.59424 21 8.52036 21 7.19566C21 5.87096 22.0074 4.79708 23.25 4.79708C24.4926 4.79708 25.5 5.87096 25.5 7.19566C25.5 8.52036 24.4926 9.59424 23.25 9.59424Z" fill="white"/>
</svg>
