<svg width="1440" height="631" viewBox="0 0 1440 631" fill="none" xmlns="http://www.w3.org/2000/svg">
<path fill-rule="evenodd" clip-rule="evenodd" d="M611.573 416.006C611.569 417.005 610.445 417.933 609.061 418.079C605.917 418.409 602.774 418.663 599.637 418.838C598.257 418.916 597.217 418.162 597.314 417.156C597.412 416.149 598.61 415.271 599.99 415.193C603.013 415.024 606.042 414.78 609.073 414.461C610.457 414.315 611.576 415.007 611.573 416.006ZM643.249 409.539C642.879 408.616 643.661 407.536 644.994 407.127C653.674 404.461 662.17 401.164 670.338 397.25C671.567 396.66 673.079 396.847 673.714 397.666C674.348 398.486 673.866 399.628 672.636 400.217C664.159 404.28 655.342 407.701 646.334 410.468C645 410.877 643.619 410.461 643.249 409.539ZM583.936 417.24C583.652 418.248 582.323 419.016 580.969 418.956C571.786 418.548 562.766 417.443 554.062 415.629C552.794 415.364 552.215 414.36 552.769 413.386C553.323 412.412 554.801 411.836 556.069 412.1C564.456 413.849 573.148 414.914 581.998 415.307C583.352 415.367 584.22 416.233 583.936 417.24ZM246.163 460.869C249.309 460.467 252.452 459.982 255.583 459.416C256.96 459.167 258.19 459.758 258.331 460.736C258.472 461.714 257.471 462.709 256.094 462.958C252.841 463.547 249.576 464.05 246.308 464.468C244.924 464.645 243.771 463.983 243.73 462.989C243.69 461.995 244.779 461.046 246.163 460.869ZM229.508 464.055C229.345 465.064 228.099 465.906 226.725 465.935C217.04 466.145 207.441 465.576 198.113 464.201C196.808 464.009 196.123 463.05 196.583 462.059C197.043 461.068 198.474 460.42 199.779 460.613C208.755 461.936 217.992 462.483 227.313 462.281C228.688 462.252 229.67 463.045 229.508 464.055ZM290.71 451.338C290.176 450.473 290.778 449.35 292.055 448.828C300.676 445.305 308.97 441.115 316.766 436.284C317.894 435.585 319.458 435.609 320.26 436.337C321.062 437.065 320.797 438.222 319.669 438.921C311.567 443.942 302.948 448.297 293.988 451.958C292.712 452.48 291.244 452.202 290.71 451.338ZM685.264 391.381C684.468 390.649 684.74 389.492 685.872 388.797C687.109 388.037 688.335 387.261 689.55 386.47L692.349 384.645C693.454 383.926 695.025 383.916 695.859 384.624C696.693 385.331 696.474 386.489 695.369 387.209L692.569 389.033C691.31 389.854 690.038 390.659 688.755 391.447C687.623 392.142 686.06 392.113 685.264 391.381ZM-66.6315 489.466L-63.8689 487.897C-62.7026 487.235 -61.1533 487.316 -60.4082 488.077C-59.6633 488.839 -60.0046 489.994 -61.1709 490.656L-63.9334 492.225L-66.6315 489.466ZM986.626 336.698L989.186 337.508L986.651 340.898L984.091 340.089C982.897 339.711 982.497 338.646 983.197 337.71C983.897 336.774 985.432 336.321 986.626 336.698ZM525.508 404.263C524.632 405.13 523.053 405.413 521.982 404.895C520.768 404.308 519.567 403.703 518.38 403.079L518.212 402.991C518.098 402.931 517.995 402.864 517.903 402.791C517.777 402.75 517.656 402.699 517.542 402.639L516.536 402.11C516.3 401.986 516.112 401.832 515.973 401.658C515.695 401.613 515.431 401.53 515.194 401.406L515.027 401.318C513.796 400.671 512.551 400.046 511.291 399.443C510.217 398.929 510.053 397.807 510.926 396.939C511.798 396.07 513.376 395.784 514.45 396.298C515.759 396.925 517.052 397.574 518.33 398.245L518.497 398.333C518.734 398.457 518.922 398.611 519.06 398.785C519.338 398.83 519.602 398.913 519.839 399.037L520.845 399.566C520.959 399.626 521.062 399.693 521.154 399.766C521.28 399.808 521.401 399.858 521.515 399.918L521.683 400.006C522.827 400.608 523.985 401.191 525.155 401.757C526.226 402.274 526.384 403.397 525.508 404.263ZM167.057 453.943C166.238 454.836 164.669 455.177 163.554 454.705C162.24 454.149 160.939 453.571 159.651 452.973L159.281 452.801C159.019 452.679 158.809 452.522 158.655 452.341C158.352 452.309 158.062 452.235 157.8 452.113L155.578 451.081C154.987 450.806 154.663 450.349 154.631 449.849C153.943 450.015 153.206 449.979 152.615 449.704L152.245 449.532C151.118 449.009 149.981 448.5 148.833 448.008C147.722 447.531 147.491 446.423 148.316 445.533C149.142 444.643 150.711 444.309 151.822 444.786C153.011 445.296 154.19 445.822 155.357 446.365L155.727 446.537C156.318 446.811 156.642 447.268 156.675 447.769C157.362 447.603 158.099 447.639 158.69 447.913L160.911 448.946C161.173 449.067 161.383 449.225 161.538 449.406C161.84 449.437 162.131 449.512 162.393 449.634L162.763 449.806C164.003 450.382 165.256 450.938 166.521 451.473C167.636 451.945 167.876 453.051 167.057 453.943ZM977.279 335.839C976.579 336.775 975.043 337.228 973.85 336.85L958.488 331.993C957.294 331.615 956.894 330.55 957.594 329.614C958.294 328.678 959.829 328.225 961.023 328.602L976.385 333.46C977.578 333.837 977.979 334.902 977.279 335.839ZM331.225 428.615C330.267 427.997 330.3 426.849 331.298 426.051C332.431 425.145 333.548 424.224 334.65 423.287C335.832 422.28 337.032 421.291 338.25 420.32C339.249 419.523 340.836 419.378 341.793 419.997C342.749 420.616 342.715 421.765 341.715 422.562C340.543 423.497 339.387 424.449 338.248 425.419C337.105 426.392 335.944 427.349 334.768 428.289C333.769 429.087 332.183 429.233 331.225 428.615ZM714.258 372.633C713.425 371.925 713.644 370.768 714.749 370.048L731.548 359.101C732.652 358.381 734.224 358.371 735.058 359.079C735.891 359.787 735.672 360.944 734.567 361.664L717.768 372.612C716.664 373.331 715.092 373.341 714.258 372.633ZM-42.5317 477.925C-43.2768 477.163 -42.9354 476.009 -41.7691 475.347L-25.1943 465.934C-24.0281 465.271 -22.4786 465.352 -21.7336 466.114C-20.9885 466.876 -21.33 468.03 -22.4962 468.692L-39.071 478.105C-40.2373 478.768 -41.7867 478.687 -42.5317 477.925ZM498.697 392.126C497.997 393.062 496.462 393.515 495.268 393.137C486.732 390.439 477.76 388.563 468.54 387.485C467.219 387.33 466.48 386.396 466.89 385.399C467.3 384.401 468.704 383.718 470.026 383.872C479.607 384.993 488.932 386.942 497.803 389.747C498.997 390.124 499.397 391.189 498.697 392.126ZM137.854 441.734C137.171 442.676 135.642 443.144 134.438 442.781C126.89 440.503 119.024 438.804 110.951 437.678C109.641 437.495 108.942 436.542 109.389 435.549C109.837 434.557 111.261 433.9 112.571 434.083C120.936 435.25 129.087 437.01 136.909 439.37C138.113 439.734 138.536 440.792 137.854 441.734ZM742.257 354.387C741.423 353.679 741.643 352.522 742.747 351.802L745.547 349.977C746.91 349.089 748.285 348.216 749.672 347.357C750.8 346.659 752.364 346.683 753.165 347.411C753.966 348.14 753.701 349.297 752.573 349.996C751.226 350.829 749.891 351.678 748.567 352.541L745.767 354.365C744.663 355.085 743.091 355.095 742.257 354.387ZM-14.9069 462.237C-15.652 461.475 -15.3107 460.321 -14.1444 459.658L-11.3819 458.089C-10.127 457.377 -8.86307 456.679 -7.59059 455.995C-6.40205 455.356 -4.86386 455.473 -4.15497 456.254C-3.4462 457.036 -3.83509 458.188 -5.02375 458.826C-6.25209 459.486 -7.47222 460.16 -8.68383 460.848L-11.4463 462.417C-12.6125 463.079 -14.162 462.999 -14.9069 462.237ZM941.434 324.505C940.734 325.441 939.199 325.894 938.005 325.516L935.444 324.707C934.013 324.254 932.574 323.819 931.125 323.402C929.912 323.052 929.467 322.001 930.131 321.054C930.796 320.107 932.319 319.623 933.533 319.973C935.024 320.403 936.506 320.85 937.98 321.316L940.54 322.126C941.734 322.503 942.134 323.568 941.434 324.505ZM370.196 402.586C369.583 401.756 370.092 400.618 371.333 400.043C380.505 395.793 390.1 392.301 399.912 389.594C401.259 389.222 402.608 389.682 402.923 390.62C403.239 391.559 402.402 392.621 401.055 392.993C391.61 395.598 382.377 398.959 373.552 403.048C372.311 403.623 370.808 403.416 370.196 402.586ZM916.463 317.844C915.946 318.825 914.485 319.429 913.202 319.193C903.923 317.484 894.403 316.425 884.757 315.998C883.402 315.938 882.534 315.073 882.818 314.065C883.102 313.057 884.43 312.289 885.785 312.349C895.718 312.788 905.522 313.879 915.077 315.639C916.361 315.875 916.981 316.862 916.463 317.844ZM432.577 385.36C432.581 386.358 431.462 387.29 430.078 387.44C426.824 387.795 423.571 388.239 420.327 388.77C418.947 388.996 417.741 388.381 417.632 387.397C417.524 386.413 418.554 385.433 419.934 385.207C423.304 384.655 426.683 384.194 430.063 383.826C431.447 383.675 432.573 384.362 432.577 385.36ZM23.2555 444.634C22.8601 443.719 23.6146 442.631 24.9408 442.204C33.5266 439.438 42.2879 437.249 51.1064 435.642C52.4828 435.392 53.7149 435.981 53.8584 436.959C54.0018 437.937 53.0022 438.933 51.6257 439.184C43.1143 440.734 34.6588 442.847 26.373 445.516C25.0468 445.943 23.651 445.548 23.2555 444.634ZM80.0773 434.28C79.9645 435.288 78.7549 436.158 77.3756 436.224C74.5195 436.361 71.6569 436.562 68.7918 436.828C67.4082 436.956 66.3088 436.248 66.3362 435.247C66.3636 434.245 67.5076 433.33 68.8912 433.202C71.8595 432.927 74.8252 432.718 77.7841 432.576C79.1634 432.51 80.1901 433.273 80.0773 434.28ZM784.069 331.933C783.553 331.061 784.176 329.942 785.461 329.432C794.994 325.651 804.803 322.471 814.766 319.91C816.121 319.562 817.448 320.048 817.729 320.995C818.011 321.943 817.141 322.993 815.786 323.342C806.111 325.828 796.586 328.916 787.328 332.588C786.044 333.098 784.584 332.804 784.069 331.933ZM832.694 317.804C832.573 316.823 833.593 315.836 834.971 315.602C838.364 315.024 841.765 314.517 845.17 314.083C846.553 313.906 847.707 314.568 847.747 315.562C847.786 316.556 846.697 317.505 845.314 317.682C842.008 318.104 838.704 318.596 835.409 319.157C834.031 319.392 832.815 318.786 832.694 317.804Z" fill="#14E8FF"/>
<path fill-rule="evenodd" clip-rule="evenodd" d="M998.97 356.478C999.015 358.067 997.928 359.453 996.542 359.574C993.776 359.815 991.007 359.981 988.239 360.072C986.852 360.117 985.745 358.862 985.766 357.269C985.787 355.677 986.928 354.349 988.314 354.304C991.003 354.216 993.691 354.055 996.378 353.82C997.764 353.699 998.925 354.889 998.97 356.478ZM1026.43 351.048C1026.13 349.511 1026.97 347.925 1028.33 347.504C1036.15 345.071 1043.88 341.993 1051.45 338.276C1052.75 337.641 1054.2 338.31 1054.7 339.771C1055.2 341.232 1054.55 342.932 1053.26 343.568C1045.46 347.395 1037.5 350.564 1029.44 353.07C1028.09 353.491 1026.74 352.585 1026.43 351.048ZM974.441 357.017C974.288 358.607 973.046 359.809 971.668 359.702C963.437 359.065 955.255 357.748 947.187 355.748C945.844 355.415 945.038 353.883 945.386 352.324C945.734 350.766 947.105 349.772 948.447 350.105C956.282 352.047 964.228 353.326 972.222 353.945C973.6 354.052 974.593 355.427 974.441 357.017ZM433.129 428.043C436.048 427.669 438.96 427.208 441.864 426.661C443.241 426.401 444.492 427.466 444.658 429.038C444.824 430.61 443.843 432.095 442.466 432.354C439.476 432.917 436.477 433.392 433.472 433.777C432.088 433.955 430.89 432.815 430.796 431.231C430.701 429.648 431.746 428.22 433.129 428.043ZM418.011 432.108C417.961 433.702 416.798 435.003 415.412 435.016C406.412 435.097 397.416 434.374 388.508 432.836C387.146 432.601 386.257 431.133 386.521 429.557C386.785 427.981 388.102 426.894 389.464 427.129C398.114 428.623 406.85 429.324 415.591 429.246C416.976 429.233 418.06 430.515 418.011 432.108ZM474.455 419.764C474.009 418.279 474.711 416.607 476.024 416.029C484.287 412.391 492.368 408.014 500.186 402.908C501.413 402.106 502.931 402.573 503.576 403.95C504.221 405.327 503.749 407.093 502.522 407.895C494.471 413.152 486.15 417.661 477.641 421.406C476.328 421.984 474.902 421.249 474.455 419.764ZM1065.08 334.005C1064.47 332.611 1064.97 330.856 1066.21 330.084C1067.41 329.336 1068.61 328.571 1069.8 327.79L1073.63 325.275C1074.86 324.47 1076.38 324.932 1077.02 326.308C1077.67 327.683 1077.2 329.45 1075.98 330.255L1072.15 332.77C1070.92 333.575 1069.69 334.362 1068.45 335.132C1067.21 335.904 1065.7 335.399 1065.08 334.005ZM919.368 342.742C918.771 344.209 917.273 344.893 916.021 344.271C914.773 343.65 913.53 343.011 912.293 342.354L906.599 339.329C905.361 338.672 904.866 336.962 905.492 335.511C906.118 334.059 907.629 333.415 908.866 334.073L914.561 337.097C915.762 337.736 916.969 338.356 918.182 338.959C919.433 339.582 919.965 341.275 919.368 342.742ZM357.285 420.798C356.746 422.292 355.273 423.052 353.996 422.497C352.61 421.895 351.23 421.271 349.855 420.624L343.678 417.721C342.414 417.127 341.854 415.447 342.426 413.968C342.998 412.49 344.486 411.772 345.749 412.366L351.927 415.27C353.262 415.897 354.602 416.503 355.948 417.088C357.226 417.643 357.825 419.304 357.285 420.798ZM514.57 395.91C513.801 394.623 514.114 392.818 515.268 391.878C516.484 390.888 517.691 389.878 518.889 388.85L524.042 384.427C525.176 383.454 526.743 383.688 527.541 384.95C528.34 386.212 528.068 388.024 526.934 388.997L521.781 393.419C520.547 394.478 519.304 395.518 518.052 396.537C516.898 397.477 515.339 397.196 514.57 395.91ZM1103.22 309.105C1102.58 307.73 1103.05 305.963 1104.27 305.158L1127.25 290.07C1128.48 289.265 1130 289.727 1130.64 291.102C1131.29 292.478 1130.82 294.245 1129.6 295.05L1106.62 310.138C1105.39 310.943 1103.87 310.48 1103.22 309.105ZM887.196 325.792C886.57 327.243 885.059 327.887 883.822 327.23L849.657 309.081C848.419 308.423 847.924 306.714 848.55 305.262C849.176 303.811 850.687 303.167 851.924 303.824L886.09 321.973C887.327 322.63 887.822 324.34 887.196 325.792ZM322.291 404.505C321.719 405.983 320.231 406.701 318.968 406.107L281.904 388.686C280.64 388.093 280.08 386.413 280.652 384.934C281.224 383.455 282.712 382.738 283.975 383.332L321.04 400.752C322.303 401.346 322.863 403.026 322.291 404.505ZM1141.53 283.959C1140.88 282.584 1141.35 280.816 1142.57 280.011L1150.23 274.982C1151.46 274.177 1152.98 274.639 1153.63 276.014C1154.27 277.39 1153.81 279.157 1152.58 279.962L1144.92 284.991C1143.69 285.796 1142.17 285.334 1141.53 283.959ZM-66.318 450.814L-62.5453 448.656C-61.283 447.934 -59.7942 448.5 -59.2203 449.921C-58.6462 451.341 -59.2041 453.078 -60.4663 453.8L-64.239 455.958L-66.318 450.814ZM1598.32 209.234L1602.52 210.581L1600.98 216.144L1596.77 214.797C1595.45 214.374 1594.73 212.786 1595.15 211.25C1595.58 209.714 1597 208.811 1598.32 209.234ZM1583.11 207.392C1582.69 208.928 1581.27 209.831 1579.95 209.408L1554.71 201.325C1553.39 200.902 1552.67 199.314 1553.1 197.778C1553.52 196.241 1554.94 195.339 1556.26 195.761L1581.49 203.845C1582.81 204.267 1583.54 205.856 1583.11 207.392ZM564.66 353.095C563.861 351.834 564.133 350.022 565.267 349.049L596.186 322.515C597.319 321.542 598.886 321.776 599.684 323.038C600.483 324.3 600.211 326.111 599.077 327.084L568.158 353.618C567.025 354.591 565.458 354.357 564.66 353.095ZM-33.6098 435.273C-34.1839 433.852 -33.6261 432.115 -32.3637 431.393L-9.72748 418.447C-8.46514 417.725 -6.97641 418.291 -6.40228 419.711C-5.82815 421.132 -6.38613 422.869 -7.64847 423.591L-30.2847 436.538C-31.5469 437.26 -33.0356 436.693 -33.6098 435.273ZM1179.83 258.812C1179.18 257.437 1179.65 255.67 1180.87 254.865L1203.85 239.777C1205.08 238.972 1206.6 239.434 1207.25 240.809C1207.9 242.184 1207.43 243.952 1206.2 244.757L1183.22 259.845C1181.99 260.65 1180.47 260.187 1179.83 258.812ZM4.11729 413.695C3.54315 412.274 4.10114 410.537 5.36348 409.815L12.9089 405.5C14.1712 404.778 15.6598 405.344 16.2339 406.765C16.808 408.185 16.2501 409.922 14.9878 410.644L7.44237 414.96C6.18015 415.681 4.69142 415.115 4.11729 413.695ZM1218.13 233.666C1217.48 232.29 1217.95 230.523 1219.17 229.718L1226.83 224.689C1228.06 223.884 1229.58 224.346 1230.23 225.721C1230.88 227.096 1230.41 228.864 1229.18 229.669L1221.52 234.698C1220.3 235.503 1218.78 235.041 1218.13 233.666ZM1524.23 188.531C1523.8 190.067 1522.39 190.97 1521.07 190.547L1512.66 187.853C1511.34 187.43 1510.61 185.842 1511.04 184.306C1511.46 182.769 1512.88 181.866 1514.2 182.289L1522.61 184.984C1523.93 185.406 1524.65 186.995 1524.23 188.531ZM807.477 283.443C806.851 284.895 805.34 285.539 804.103 284.882L798.409 281.857C797.046 281.133 795.677 280.432 794.301 279.754C793.047 279.136 792.511 277.445 793.104 275.976C793.697 274.507 795.194 273.817 796.447 274.435C797.864 275.133 799.273 275.855 800.677 276.6L806.371 279.625C807.608 280.282 808.103 281.992 807.477 283.443ZM41.8444 392.117C41.2702 390.696 41.8281 388.959 43.0905 388.237L65.7267 375.291C66.989 374.569 68.4778 375.135 69.0519 376.555C69.626 377.976 69.0681 379.713 67.8057 380.435L45.1696 393.381C43.9072 394.103 42.4185 393.537 41.8444 392.117ZM235.808 363.856C235.236 365.335 233.748 366.053 232.485 365.459L226.307 362.555C224.116 361.526 221.909 360.553 219.688 359.637C218.401 359.107 217.778 357.459 218.296 355.956C218.814 354.454 220.276 353.665 221.563 354.196C223.85 355.139 226.123 356.14 228.379 357.201L234.556 360.104C235.819 360.698 236.38 362.378 235.808 363.856ZM616.19 308.872C615.392 307.61 615.664 305.799 616.798 304.826L621.951 300.403C623.237 299.3 624.532 298.218 625.837 297.158C626.992 296.219 628.55 296.502 629.318 297.789C630.085 299.077 629.771 300.882 628.616 301.82C627.349 302.85 626.091 303.901 624.842 304.973L619.689 309.395C618.555 310.368 616.989 310.134 616.19 308.872ZM1498.99 180.448C1498.57 181.984 1497.15 182.887 1495.83 182.464L1470.6 174.381C1469.28 173.958 1468.55 172.37 1468.98 170.833C1469.4 169.297 1470.82 168.394 1472.14 168.817L1497.37 176.9C1498.69 177.323 1499.42 178.911 1498.99 180.448ZM1256.43 208.519C1255.78 207.144 1256.25 205.376 1257.48 204.572L1280.46 189.484C1281.68 188.679 1283.2 189.141 1283.85 190.516C1284.5 191.891 1284.03 193.659 1282.8 194.464L1259.82 209.551C1258.6 210.356 1257.08 209.894 1256.43 208.519ZM780.58 270.731C780.126 272.257 778.696 273.126 777.385 272.67C768.687 269.645 759.815 267.474 750.86 266.146C749.493 265.943 748.577 264.498 748.812 262.917C749.048 261.337 750.347 260.22 751.714 260.423C760.936 261.79 770.072 264.025 779.029 267.141C780.339 267.596 781.034 269.204 780.58 270.731ZM79.5715 370.539C78.9973 369.118 79.5553 367.381 80.8175 366.659L84.5904 364.502C86.8448 363.212 89.1158 361.98 91.4015 360.805C92.6871 360.144 94.1507 360.784 94.6706 362.233C95.1905 363.683 94.5697 365.395 93.284 366.055C91.0643 367.197 88.8588 368.393 86.6693 369.646L82.8966 371.803C81.6342 372.525 80.1456 371.959 79.5715 370.539ZM195.179 348.974C194.887 350.545 193.552 351.601 192.196 351.333C178.069 348.544 163.644 347.874 149.281 349.306C147.895 349.444 146.723 348.269 146.663 346.682C146.603 345.094 147.677 343.696 149.063 343.557C163.853 342.083 178.706 342.773 193.253 345.645C194.609 345.913 195.471 347.403 195.179 348.974ZM657.761 279.44C657.259 277.981 657.901 276.279 659.194 275.639C668.01 271.274 677.054 267.747 686.232 265.07C687.589 264.674 688.921 265.605 689.206 267.148C689.492 268.692 688.624 270.264 687.267 270.66C678.354 273.259 669.571 276.684 661.01 280.923C659.717 281.563 658.262 280.899 657.761 279.44ZM1294.73 183.372C1294.08 181.997 1294.55 180.23 1295.78 179.425L1299.61 176.91C1301.66 175.564 1303.73 174.267 1305.81 173.018C1307.06 172.269 1308.56 172.801 1309.16 174.207C1309.76 175.613 1309.23 177.361 1307.98 178.11C1305.95 179.323 1303.94 180.583 1301.95 181.89L1298.12 184.405C1296.9 185.21 1295.38 184.748 1294.73 183.372ZM1440.11 161.586C1439.68 163.123 1438.27 164.026 1436.95 163.603L1432.74 162.256C1430.6 161.569 1428.45 160.934 1426.28 160.349C1424.95 159.988 1424.17 158.437 1424.54 156.885C1424.91 155.333 1426.3 154.368 1427.63 154.729C1429.86 155.331 1432.08 155.985 1434.28 156.692L1438.49 158.039C1439.81 158.462 1440.53 160.05 1440.11 161.586ZM716.835 262.208C716.898 263.795 715.826 265.196 714.44 265.338C711.396 265.648 708.357 266.053 705.325 266.552C703.945 266.779 702.715 265.684 702.577 264.107C702.439 262.53 703.446 261.067 704.826 260.84C707.948 260.327 711.078 259.91 714.212 259.59C715.598 259.449 716.772 260.621 716.835 262.208ZM1402.62 153.08C1402.46 154.67 1401.22 155.869 1399.84 155.76C1386.4 154.688 1372.85 155.486 1359.49 158.111C1358.11 158.381 1356.86 157.327 1356.68 155.757C1356.51 154.187 1357.48 152.694 1358.85 152.424C1372.61 149.722 1386.56 148.899 1400.41 150.003C1401.78 150.113 1402.78 151.49 1402.62 153.08Z" fill="#BCF6FF"/>
</svg>
