<svg width="31" height="32" viewBox="0 0 31 32" fill="none" xmlns="http://www.w3.org/2000/svg">
<path fill-rule="evenodd" clip-rule="evenodd" d="M3.60468 15.9905C3.60468 8.84134 9.0918 3.04581 15.8605 3.04581C22.6291 3.04581 28.1163 8.84134 28.1163 15.9905C28.1163 23.1396 22.6291 28.9352 15.8605 28.9352C13.4494 28.9352 11.2051 28.2014 9.31151 26.9342C8.9591 26.6985 8.52728 26.6354 8.12754 26.7614L3.97621 28.07L5.53924 24.207C5.72399 23.7504 5.6864 23.2275 5.43851 22.8056C4.27613 20.8272 3.60468 18.494 3.60468 15.9905ZM15.8605 0C7.49916 0 0.720961 7.15918 0.720961 15.9905C0.720961 18.7897 1.40316 21.4247 2.60206 23.7157L0.116029 29.8596C-0.103743 30.4028 -0.00632768 31.0311 0.365975 31.4719C0.738278 31.9127 1.31832 32.0863 1.85422 31.9173L8.34175 29.8725C10.558 31.2142 13.1263 31.981 15.8605 31.981C24.2218 31.981 31 24.8218 31 15.9905C31 7.15918 24.2218 0 15.8605 0ZM19.1659 19.3141L17.271 20.7238C16.3836 20.1899 15.4024 19.4446 14.4182 18.405C13.395 17.3244 12.6365 16.2087 12.0772 15.1853L13.2814 14.1057C13.7982 13.6425 13.9396 12.8614 13.6213 12.2293L12.0869 9.18353C11.8803 8.7734 11.5077 8.48531 11.0751 8.40116C10.6426 8.31702 10.1973 8.44602 9.86589 8.7515L9.41097 9.17085C8.31698 10.1793 7.66998 11.8365 8.20622 13.5144C8.76216 15.2539 9.94859 17.9916 12.3791 20.5587C14.9941 23.3207 17.6502 24.4083 19.2036 24.8308C20.4551 25.171 21.6394 24.7149 22.474 23.9967L23.3269 23.2626C23.6916 22.9488 23.8885 22.4665 23.8541 21.9708C23.8197 21.4751 23.5584 21.0282 23.1541 20.7738L20.7342 19.2509C20.2455 18.9434 19.6312 18.9681 19.1659 19.3141Z" fill="white"/>
</svg>
